<?xml version="1.0" encoding="UTF-8"?>
<svg xmlns="http://www.w3.org/2000/svg" width="64" height="64" viewBox="0 0 64 64">
  <rect width="64" height="64" fill="#1DA1F2" rx="12"/>
  <path fill="#FFFFFF" d="M50 20.5a16.4 16.4 0 0 1-4.7 1.3 8.2 8.2 0 0 0 3.6-4.5 16.3 16.3 0 0 1-5.2 2A8.2 8.2 0 0 0 32 26.6a8.3 8.3 0 0 0 .2 1.9A23.3 23.3 0 0 1 16.8 19a8.2 8.2 0 0 0 2.5 11 8.1 8.1 0 0 1-3.7-1v.1a8.2 8.2 0 0 0 6.6 8 8.3 8.3 0 0 1-2.2.3 8 8 0 0 1-1.6-.2 8.2 8.2 0 0 0 7.7 5.7 16.4 16.4 0 0 1-10.2 3.5 16.8 16.8 0 0 1-2-.1 23.2 23.2 0 0 0 12.6 3.7c15.2 0 23.5-12.6 23.5-23.5v-1.1a16.7 16.7 0 0 0 4.1-4.3z"/>
</svg>
